<?xml version="1.0" encoding="UTF-8"?>
<!DOCTYPE svg PUBLIC "-//W3C//DTD SVG 1.1//EN" "http://www.w3.org/Graphics/SVG/1.1/DTD/svg11.dtd">
<svg xmlns="http://www.w3.org/2000/svg" version="1.1" width="260px" height="260px" style="shape-rendering:geometricPrecision; text-rendering:geometricPrecision; image-rendering:optimizeQuality; fill-rule:evenodd; clip-rule:evenodd" xmlns:xlink="http://www.w3.org/1999/xlink">
<g><path style="opacity:1" fill="#000000" d="M -0.5,-0.5 C 86.1667,-0.5 172.833,-0.5 259.5,-0.5C 259.5,86.1667 259.5,172.833 259.5,259.5C 172.833,259.5 86.1667,259.5 -0.5,259.5C -0.5,172.833 -0.5,86.1667 -0.5,-0.5 Z"/></g>
<g><path style="opacity:1" fill="#fcfcfc" d="M 78.5,101.5 C 79.4896,107.31 79.8229,113.31 79.5,119.5C 72.8333,119.5 66.1667,119.5 59.5,119.5C 59.5,126.167 59.5,132.833 59.5,139.5C 53.4093,139.211 47.4093,139.545 41.5,140.5C 40.5084,140.672 39.8417,140.338 39.5,139.5C 39.2598,133.773 39.5931,128.106 40.5,122.5C 52.8722,114.98 65.5388,107.98 78.5,101.5 Z"/></g>
<g><path style="opacity:1" fill="#ededed" d="M 138.5,79.5 C 132.182,79.3769 126.016,79.3769 120,79.5C 119.5,86.1583 119.334,92.825 119.5,99.5C 112.833,99.5 106.167,99.5 99.5,99.5C 99.5,106.167 99.5,112.833 99.5,119.5C 106.167,119.5 112.833,119.5 119.5,119.5C 119.5,121.5 119.5,123.5 119.5,125.5C 126.167,125.5 132.833,125.5 139.5,125.5C 139.5,123.5 139.5,121.5 139.5,119.5C 146.167,119.5 152.833,119.5 159.5,119.5C 159.5,112.833 159.5,106.167 159.5,99.5C 152.833,99.5 146.167,99.5 139.5,99.5C 139.5,92.8333 139.5,86.1667 139.5,79.5C 153.195,86.6764 166.528,94.343 179.5,102.5C 179.325,107.943 179.325,113.61 179.5,119.5C 186.167,119.5 192.833,119.5 199.5,119.5C 199.5,126.167 199.5,132.833 199.5,139.5C 204.839,139.337 209.839,139.004 214.5,138.5C 221.486,138.669 223.153,135.836 219.5,130C 218.207,129.51 216.873,129.343 215.5,129.5C 216.568,128.566 217.901,128.232 219.5,128.5C 219.38,125.795 220.38,125.128 222.5,126.5C 223.484,123.572 223.817,120.572 223.5,117.5C 224.166,120.689 224.833,124.023 225.5,127.5C 228.994,129.079 232.327,130.913 235.5,133C 232.251,135.543 228.751,137.709 225,139.5C 224.5,156.163 224.333,172.83 224.5,189.5C 226.607,190.468 228.941,190.802 231.5,190.5C 231.821,195.695 231.487,200.695 230.5,205.5C 227.651,203.575 224.651,201.909 221.5,200.5C 217.957,201.871 214.79,203.871 212,206.5C 211.501,200.843 211.334,195.176 211.5,189.5C 213.833,189.5 216.167,189.5 218.5,189.5C 219.827,173.995 219.827,158.328 218.5,142.5C 217.893,142.624 217.56,142.957 217.5,143.5C 211.009,146.578 204.675,149.912 198.5,153.5C 197.833,150.167 197.167,146.833 196.5,143.5C 170.331,130.542 142.664,125.042 113.5,127C 96.0658,130.383 79.3991,136.049 63.5,144C 62.7362,146.069 62.2362,148.236 62,150.5C 55.0294,147.264 48.1961,143.93 41.5,140.5C 47.4093,139.545 53.4093,139.211 59.5,139.5C 59.5,132.833 59.5,126.167 59.5,119.5C 66.1667,119.5 72.8333,119.5 79.5,119.5C 79.8229,113.31 79.4896,107.31 78.5,101.5C 93.7752,91.8553 109.442,82.6887 125.5,74C 126.833,73.3333 128.167,73.3333 129.5,74C 132.564,75.8588 135.564,77.6921 138.5,79.5 Z"/></g>
<g><path style="opacity:1" fill="#f8f8f8" d="M 138.5,79.5 C 138.833,79.5 139.167,79.5 139.5,79.5C 139.5,86.1667 139.5,92.8333 139.5,99.5C 146.167,99.5 152.833,99.5 159.5,99.5C 159.5,106.167 159.5,112.833 159.5,119.5C 152.833,119.5 146.167,119.5 139.5,119.5C 139.5,121.5 139.5,123.5 139.5,125.5C 132.833,125.5 126.167,125.5 119.5,125.5C 119.5,123.5 119.5,121.5 119.5,119.5C 112.833,119.5 106.167,119.5 99.5,119.5C 99.5,112.833 99.5,106.167 99.5,99.5C 106.167,99.5 112.833,99.5 119.5,99.5C 119.334,92.825 119.5,86.1583 120,79.5C 126.016,79.3769 132.182,79.3769 138.5,79.5 Z"/></g>
<g><path style="opacity:1" fill="#f9f9f9" d="M 179.5,102.5 C 188.604,106.886 197.604,111.552 206.5,116.5C 210.651,113.257 215.318,112.09 220.5,113C 222.141,114.129 223.141,115.629 223.5,117.5C 223.817,120.572 223.484,123.572 222.5,126.5C 220.38,125.128 219.38,125.795 219.5,128.5C 217.901,128.232 216.568,128.566 215.5,129.5C 210.689,131.949 210.356,134.949 214.5,138.5C 209.839,139.004 204.839,139.337 199.5,139.5C 199.5,132.833 199.5,126.167 199.5,119.5C 192.833,119.5 186.167,119.5 179.5,119.5C 179.325,113.61 179.325,107.943 179.5,102.5 Z"/></g>
<g><path style="opacity:1" fill="#131313" d="M 214.5,118.5 C 215.833,118.5 217.167,118.5 218.5,118.5C 219.073,124.357 217.406,124.857 213.5,120C 214.056,119.617 214.389,119.117 214.5,118.5 Z"/></g>
<g><path style="opacity:1" fill="#0f0f0f" d="M 215.5,129.5 C 216.873,129.343 218.207,129.51 219.5,130C 223.153,135.836 221.486,138.669 214.5,138.5C 210.356,134.949 210.689,131.949 215.5,129.5 Z"/></g>
<g><path style="opacity:1" fill="#e1e1e1" d="M 40.5,122.5 C 39.5931,128.106 39.2598,133.773 39.5,139.5C 33.9454,137.724 28.612,135.391 23.5,132.5C 29.0297,128.903 34.6964,125.57 40.5,122.5 Z"/></g>
<g><path style="opacity:1" fill="#eeeeee" d="M 178.5,176.5 C 179.489,171.025 179.822,165.358 179.5,159.5C 172.833,159.5 166.167,159.5 159.5,159.5C 159.5,152.833 159.5,146.167 159.5,139.5C 152.833,139.5 146.167,139.5 139.5,139.5C 139.5,146.167 139.5,152.833 139.5,159.5C 132.833,159.5 126.167,159.5 119.5,159.5C 119.5,152.833 119.5,146.167 119.5,139.5C 112.833,139.5 106.167,139.5 99.5,139.5C 99.5,146.167 99.5,152.833 99.5,159.5C 92.8333,159.5 86.1667,159.5 79.5,159.5C 79.1778,165.358 79.5111,171.025 80.5,176.5C 77.0497,178.208 73.383,179.541 69.5,180.5C 69.1793,169.252 69.5126,158.085 70.5,147C 110.112,126.397 149.779,126.397 189.5,147C 190.487,158.085 190.821,169.252 190.5,180.5C 186.216,179.739 182.216,178.405 178.5,176.5 Z"/></g>
<g><path style="opacity:1" fill="#4b4b4b" d="M 196.5,143.5 C 197.167,146.833 197.833,150.167 198.5,153.5C 198.44,154.043 198.107,154.376 197.5,154.5C 196.511,150.893 196.177,147.226 196.5,143.5 Z"/></g>
<g><path style="opacity:1" fill="#f9f9f9" d="M 178.5,176.5 C 162.345,171.67 145.845,168.67 129,167.5C 112.416,168.384 96.2495,171.384 80.5,176.5C 79.5111,171.025 79.1778,165.358 79.5,159.5C 86.1667,159.5 92.8333,159.5 99.5,159.5C 99.5,152.833 99.5,146.167 99.5,139.5C 106.167,139.5 112.833,139.5 119.5,139.5C 119.5,146.167 119.5,152.833 119.5,159.5C 126.167,159.5 132.833,159.5 139.5,159.5C 139.5,152.833 139.5,146.167 139.5,139.5C 146.167,139.5 152.833,139.5 159.5,139.5C 159.5,146.167 159.5,152.833 159.5,159.5C 166.167,159.5 172.833,159.5 179.5,159.5C 179.822,165.358 179.489,171.025 178.5,176.5 Z"/></g>
<g><path style="opacity:1" fill="#8c8c8c" d="M 217.5,143.5 C 217.56,142.957 217.893,142.624 218.5,142.5C 219.827,158.328 219.827,173.995 218.5,189.5C 218.83,173.991 218.496,158.658 217.5,143.5 Z"/></g>
<g><path style="opacity:1" fill="#858585" d="M 224.5,189.5 C 227.167,189.5 229.833,189.5 232.5,189.5C 232.829,195.206 232.495,200.872 231.5,206.5C 230.893,206.376 230.56,206.043 230.5,205.5C 231.487,200.695 231.821,195.695 231.5,190.5C 228.941,190.802 226.607,190.468 224.5,189.5 Z"/></g>
</svg>
